<?xml version="1.0" standalone="no"?>
<!DOCTYPE svg PUBLIC "-//W3C//DTD SVG 20010904//EN"
 "http://www.w3.org/TR/2001/REC-SVG-20010904/DTD/svg10.dtd">
<svg version="1.0" xmlns="http://www.w3.org/2000/svg"
 width="1176.000000pt" height="1135.000000pt" viewBox="0 0 1176.000000 1135.000000"
 preserveAspectRatio="xMidYMid meet">

<g transform="translate(0.000000,1135.000000) scale(0.100000,-0.100000)"
fill="#000000" stroke="none">
<path d="M9805 8583 c-35 -55 -242 -331 -364 -487 -475 -608 -1020 -1168
-1581 -1627 -135 -111 -460 -352 -620 -461 -294 -200 -660 -413 -998 -580 -94
-47 -127 -69 -143 -94 -21 -34 -157 -164 -171 -164 -4 0 -8 -8 -8 -17 0 -15 2
-16 10 -3 8 13 11 12 24 -5 19 -25 18 -22 20 -73 2 -25 -2 -41 -8 -40 -6 1
-22 -2 -35 -6 -19 -6 -28 -4 -38 10 -17 24 -18 63 -1 46 18 -18 35 -15 41 8 6
22 -8 37 -18 20 -12 -20 -53 -10 -74 18 -11 15 -21 22 -21 16 0 -6 7 -17 15
-24 8 -7 24 -33 35 -58 12 -26 27 -53 34 -62 17 -20 29 -53 16 -45 -6 3 -10 1
-10 -4 0 -6 6 -11 13 -11 8 0 19 -12 25 -26 15 -30 -2 -24 -31 13 -22 27 -41
21 -31 -10 6 -20 5 -21 -11 -7 -17 14 -17 14 -3 -15 8 -16 13 -36 10 -44 -3
-9 0 -11 7 -7 7 5 9 17 5 29 -6 19 -5 20 9 8 9 -7 14 -18 10 -25 -5 -8 -3 -8
8 0 25 19 57 23 63 7 9 -23 7 -24 -14 -11 -15 10 -22 10 -31 1 -18 -18 17 -69
36 -53 10 8 20 5 41 -14 17 -15 23 -25 15 -26 -8 0 -19 8 -26 17 -11 14 -15
15 -28 4 -9 -7 -22 -9 -28 -5 -9 5 -10 2 -6 -9 3 -10 2 -17 -2 -17 -5 0 -12 7
-15 15 -4 13 -10 14 -26 5 -11 -6 -20 -16 -20 -23 0 -14 -39 -41 -47 -33 -3 3
2 8 11 12 9 3 16 12 16 20 0 18 46 48 60 39 7 -4 9 2 6 19 -6 35 -15 48 -28
40 -7 -4 -6 -9 2 -14 9 -5 5 -8 -11 -8 -50 0 -80 -10 -103 -35 -25 -26 -19
-57 10 -57 8 0 12 -5 9 -10 -4 -6 -18 -2 -37 11 -22 16 -32 19 -38 10 -5 -9
-9 -8 -14 4 -3 9 -10 13 -16 10 -5 -3 -10 -2 -10 3 0 5 -9 21 -21 36 -17 21
-24 24 -40 15 -39 -20 -70 9 -124 116 -14 28 -36 65 -50 83 -13 18 -26 38 -28
45 -3 9 -8 9 -17 1 -9 -9 -8 -18 4 -42 25 -49 18 -61 -10 -17 -13 22 -23 48
-20 58 5 22 7 22 -82 -9 l-74 -25 -117 77 c-1171 778 -2162 1842 -2956 3174
-71 118 -135 226 -143 239 -14 23 -15 22 -64 -65 -130 -229 -283 -576 -357
-806 -96 -301 -195 -792 -220 -1093 -22 -264 -23 -250 17 -308 121 -177 430
-582 544 -713 14 -16 70 -81 124 -144 140 -163 332 -366 543 -574 99 -98 181
-180 181 -182 0 -2 -87 -4 -194 -4 l-195 0 -144 158 c-301 326 -664 774 -837
1030 -19 28 -38 52 -42 52 -4 0 -6 -19 -3 -42 3 -24 9 -90 15 -148 93 -911
482 -1812 1087 -2517 558 -649 1296 -1143 2088 -1396 577 -185 1306 -245 1965
-161 408 51 857 172 1230 329 1004 424 1826 1169 2348 2130 57 105 182 364
182 377 0 2 -80 -75 -177 -172 -209 -207 -329 -320 -516 -488 l-137 -123 -172
16 c-94 8 -173 16 -174 18 -1 1 39 36 89 78 375 312 856 787 1195 1181 55 64
103 124 106 135 12 39 55 294 70 413 45 360 48 734 10 1084 l-7 59 -21 -29
c-102 -140 -437 -546 -622 -754 -268 -301 -689 -714 -989 -971 -352 -301 -782
-612 -1158 -840 l-138 -83 -112 33 c-62 17 -150 44 -197 58 l-84 25 39 20 c22
11 118 63 214 115 1108 605 2107 1483 2923 2570 l101 134 -22 110 c-73 363
-219 773 -410 1145 -87 171 -249 444 -262 444 -4 0 -15 -12 -24 -27z m-3275
-3103 c0 -5 -7 -7 -15 -4 -20 8 -19 1 10 -56 l25 -49 -92 -54 c-51 -30 -114
-66 -140 -80 -26 -15 -50 -33 -54 -39 -4 -6 21 4 57 24 162 89 223 121 216
113 -4 -5 -47 -32 -95 -60 -47 -27 -92 -60 -98 -72 -8 -16 -14 -19 -22 -11 -8
8 -20 5 -45 -11 -38 -23 -52 -27 -41 -10 3 6 1 15 -5 19 -8 5 -1 14 23 28 42
25 43 29 15 77 -12 20 -19 38 -16 42 5 5 41 -46 51 -72 2 -5 7 -7 11 -3 4 4
-3 25 -16 47 -32 57 -17 63 16 6 15 -25 30 -45 34 -43 3 2 48 25 98 52 l93 49
-30 52 c-16 29 -27 55 -23 58 10 11 43 8 43 -3z m99 -64 c-2 -2 -15 -9 -29
-15 -24 -11 -24 -11 -6 3 16 13 49 24 35 12z m-14 -42 c-11 -8 -19 -18 -18
-22 1 -4 -10 -8 -24 -9 -22 -1 -21 1 13 23 44 27 59 31 29 8z m-185 -283 c11
-22 20 -44 20 -48 0 -11 -79 130 -80 142 0 12 30 -36 60 -94z m-255 59 c-3 -5
-13 -10 -21 -10 -8 0 -14 5 -14 10 0 6 9 10 21 10 11 0 17 -4 14 -10z m15 -20
c0 -5 -5 -10 -11 -10 -5 0 -7 5 -4 10 3 6 8 10 11 10 2 0 4 -4 4 -10z m-84
-29 c-4 -5 0 -12 6 -14 10 -4 10 -8 -2 -16 -18 -13 -30 -5 -30 20 0 11 7 19
16 19 8 0 13 -4 10 -9z m390 -56 c-11 -8 -25 -15 -30 -15 -6 1 0 7 14 15 32
19 40 18 16 0z m-467 -31 c6 -15 9 -35 6 -45 -3 -10 -1 -28 6 -40 10 -19 9
-21 -5 -16 -9 4 -19 -1 -25 -11 -9 -16 -11 -16 -28 1 -16 16 -16 19 -3 28 13
9 12 10 -2 5 -13 -4 -22 3 -32 22 -14 28 -11 56 5 46 11 -6 49 4 48 14 -5 31
15 28 30 -4z m651 21 c0 -2 -13 -11 -30 -20 -38 -19 -40 -11 -2 9 31 17 32 18
32 11z m-254 -28 c-11 -7 -34 -25 -53 -41 -18 -16 -36 -26 -39 -23 -9 8 81 76
101 76 6 0 1 -6 -9 -12z m184 -11 c0 -9 -92 -57 -97 -52 -8 8 -6 9 42 34 40
21 55 26 55 18z m-310 -27 c0 -6 -4 -7 -10 -4 -5 3 -10 11 -10 16 0 6 5 7 10
4 6 -3 10 -11 10 -16z m-99 -38 c-10 -6 -11 -13 -2 -29 6 -11 11 -24 11 -29
-1 -4 -8 4 -16 20 -15 28 -12 47 9 47 8 0 8 -3 -2 -9z m64 -41 c-14 -15 -16
-23 -8 -28 7 -5 9 -13 4 -21 -6 -9 -10 -5 -15 15 -5 20 -3 30 8 36 13 7 14 13
5 31 -11 21 -10 21 7 5 17 -17 17 -18 -1 -38z m-181 -18 l-7 -27 -8 35 c-9 40
-1 61 13 36 6 -10 6 -29 2 -44z m377 37 c-13 -11 -27 -17 -30 -13 -7 7 28 34
43 34 6 -1 0 -10 -13 -21z m-977 -24 c18 -27 7 -35 -14 -10 -7 8 -19 15 -27
15 -8 0 -11 5 -8 10 11 17 32 11 49 -15z m559 -41 c-5 -13 -2 -15 18 -9 l24 7
-20 -20 c-18 -18 -21 -18 -32 -4 -9 11 -10 19 -2 29 15 18 20 16 12 -3z m290
-9 c-3 -9 -8 -14 -10 -11 -3 3 -2 9 2 15 9 16 15 13 8 -4z m-223 -33 c0 -15
-2 -15 -10 -2 -13 20 -13 33 0 25 6 -3 10 -14 10 -23z m35 -11 c2 -12 0 -19
-6 -16 -5 4 -9 16 -9 27 0 26 9 19 15 -11z m126 6 c-10 -9 -11 -8 -5 6 3 10 9
15 12 12 3 -3 0 -11 -7 -18z m-161 -47 c0 -5 -2 -10 -4 -10 -3 0 -8 5 -11 10
-3 6 -1 10 4 10 6 0 11 -4 11 -10z m-110 -10 c13 -8 13 -10 -2 -10 -9 0 -20 5
-23 10 -8 13 5 13 25 0z m164 -26 c3 -8 2 -12 -4 -9 -6 3 -10 10 -10 16 0 14
7 11 14 -7z m-214 -34 c-8 -5 -19 -10 -25 -10 -5 0 -3 5 5 10 8 5 20 10 25 10
6 0 3 -5 -5 -10z m-51 -3 c-2 -1 -13 -9 -24 -17 -19 -14 -19 -14 -6 3 7 9 18
17 24 17 6 0 8 -1 6 -3z m171 -31 c0 -2 -7 -7 -16 -10 -8 -3 -12 -2 -9 4 6 10
25 14 25 6z m-80 -16 c-8 -5 -19 -10 -25 -10 -5 0 -3 5 5 10 8 5 20 10 25 10
6 0 3 -5 -5 -10z m-908 -1540 c54 -25 94 -47 90 -51 -8 -7 -337 -62 -479 -80
l-92 -11 -113 62 c-135 75 -369 213 -365 216 1 1 83 9 182 19 99 9 223 22 275
29 l95 12 155 -76 c85 -42 199 -96 252 -120z m2129 -669 c52 -11 142 -28 202
-37 59 -10 107 -20 107 -23 0 -16 -522 -241 -558 -241 -23 0 -275 52 -376 78
-68 18 -69 18 -40 29 16 6 110 41 209 77 99 36 216 81 260 100 44 19 85 35 91
35 6 1 53 -8 105 -18z"/>
<path d="M5977 4984 c-13 -14 -7 -29 18 -41 14 -6 25 -8 25 -3 0 15 -35 51
-43 44z"/>
<path d="M5853 5250 c-35 -16 -63 -33 -63 -37 0 -14 20 -39 20 -25 0 23 18 12
39 -23 24 -41 40 -46 33 -9 -2 14 -1 29 5 33 5 3 19 25 31 49 26 50 20 51 -65
12z"/>
<path d="M5737 5204 c-9 -9 47 -114 60 -114 10 0 9 9 -3 38 -9 20 -18 45 -21
54 -5 17 -27 30 -36 22z"/>
<path d="M5554 5133 l-121 -45 21 -40 c29 -56 67 -98 88 -98 16 0 17 6 12 39
-5 34 -3 41 16 51 20 11 25 9 45 -16 20 -25 22 -25 29 -9 5 14 10 15 18 7 8
-8 8 -15 -2 -26 -18 -22 -5 -49 20 -41 22 7 26 -5 8 -23 -9 -9 -9 -18 0 -37 7
-14 12 -34 12 -45 0 -10 5 -22 11 -26 7 -4 10 1 7 12 -4 20 49 77 66 71 23 -8
15 -28 -18 -48 -39 -23 -45 -39 -20 -60 14 -11 18 -10 30 5 7 11 30 22 51 25
44 7 52 27 23 58 -11 12 -20 26 -20 30 0 4 -9 23 -21 42 l-20 34 -33 -37 c-19
-20 -39 -36 -45 -36 -17 0 -13 14 9 28 11 7 20 17 20 23 0 7 7 17 17 24 9 7
14 19 10 28 -5 14 -11 15 -32 7 -28 -11 -49 -5 -40 11 4 5 15 9 26 9 10 0 19
5 19 10 0 9 -60 121 -63 119 -1 0 -57 -21 -123 -46z"/>
<path d="M5814 5059 c-10 -17 13 -36 27 -22 12 12 4 33 -11 33 -5 0 -12 -5
-16 -11z"/>
<path d="M5570 5010 c0 -5 5 -10 10 -10 6 0 10 5 10 10 0 6 -4 10 -10 10 -5 0
-10 -4 -10 -10z"/>
<path d="M5844 4986 c-16 -12 -17 -17 -6 -28 11 -11 12 -10 6 5 -6 17 -5 18
14 6 24 -15 35 -9 26 15 -8 20 -15 20 -40 2z"/>
<path d="M5607 4964 c-8 -8 3 -34 14 -34 11 0 12 27 0 34 -4 3 -11 3 -14 0z"/>
<path d="M5545 4926 c-16 -12 -17 -16 -6 -30 16 -19 21 -19 44 -2 10 8 15 20
11 30 -8 20 -24 20 -49 2z"/>
<path d="M5630 4904 c0 -4 9 -22 21 -40 12 -20 16 -34 9 -34 -6 0 -8 -5 -5
-11 5 -6 12 -3 21 10 13 18 13 24 -1 51 -13 26 -45 43 -45 24z"/>
<path d="M5580 4856 c0 -33 22 -49 45 -33 14 11 16 17 6 35 -16 31 -51 29 -51
-2z"/>
<path d="M5555 4860 c3 -5 8 -10 11 -10 2 0 4 5 4 10 0 6 -5 10 -11 10 -5 0
-7 -4 -4 -10z"/>
<path d="M5684 4805 c3 -9 6 -19 6 -21 0 -2 7 -4 16 -4 22 0 13 34 -10 38 -14
3 -17 0 -12 -13z"/>
<path d="M2141 964 c-226 -60 -386 -273 -369 -489 17 -208 199 -330 444 -296
88 12 164 35 231 70 46 23 42 11 73 196 12 66 23 128 26 138 5 15 -5 17 -109
17 l-115 0 -11 -67 c-7 -38 -14 -83 -18 -101 -6 -37 -29 -47 -108 -46 -95 0
-149 56 -148 154 1 64 18 111 59 159 73 87 221 95 300 16 l26 -26 94 72 c103
79 104 82 43 133 -71 60 -156 86 -279 85 -47 0 -109 -7 -139 -15z"/>
<path d="M3003 965 c-216 -59 -373 -252 -373 -461 0 -226 212 -373 464 -321
257 53 427 252 415 488 -10 193 -152 310 -373 308 -44 0 -105 -7 -133 -14z
m173 -211 c38 -18 74 -82 74 -131 0 -84 -53 -179 -119 -212 -62 -32 -103 -35
-155 -12 -163 72 -65 369 122 371 24 0 59 -7 78 -16z"/>
<path d="M4853 966 c-119 -30 -253 -126 -308 -221 -71 -121 -89 -276 -43 -376
34 -75 67 -111 135 -147 132 -69 329 -63 497 18 l61 29 24 138 c12 76 25 151
28 166 l6 28 -114 -3 -113 -3 -16 -93 c-9 -52 -22 -97 -30 -102 -45 -28 -145
-18 -193 20 -54 43 -61 149 -15 237 59 115 226 150 317 68 l38 -35 86 65 c47
35 89 70 93 76 11 19 -84 101 -142 123 -63 24 -238 31 -311 12z"/>
<path d="M11295 967 c-111 -29 -202 -94 -241 -175 -27 -56 -30 -159 -5 -199
29 -46 96 -80 212 -109 126 -31 141 -39 137 -67 -10 -70 -191 -59 -339 20 -4
2 -32 -38 -64 -88 -65 -106 -66 -102 32 -139 129 -48 308 -48 440 1 81 31 165
116 187 189 21 72 20 97 -6 150 -30 58 -94 94 -220 121 -132 29 -167 57 -116
93 44 31 175 18 278 -28 12 -5 29 17 70 85 52 88 53 92 35 106 -60 43 -294 67
-400 40z"/>
<path d="M120 958 c0 -2 -27 -156 -60 -343 -33 -187 -60 -360 -60 -383 l0 -44
273 4 c302 5 341 12 419 71 61 46 92 108 93 179 0 63 -19 97 -73 134 l-32 22
35 23 c59 40 89 92 93 165 4 63 4 65 -35 103 -63 64 -105 71 -400 71 -139 0
-253 -1 -253 -2z m408 -190 c16 -16 15 -50 -2 -74 -12 -16 -29 -20 -105 -22
-101 -4 -97 -8 -85 71 l7 37 86 0 c54 0 92 -5 99 -12z m-33 -278 c14 -5 28
-17 31 -25 11 -27 -16 -73 -48 -84 -32 -11 -190 -15 -200 -6 -5 5 7 80 17 113
5 15 161 17 200 2z"/>
<path d="M1002 581 c-127 -209 -232 -382 -232 -385 0 -3 58 -6 129 -6 l130 0
37 70 38 70 147 0 146 0 15 -67 14 -68 132 -3 c73 -1 132 1 132 5 0 4 -44 178
-97 385 l-98 378 -130 0 -130 0 -233 -379z m338 27 c10 -46 16 -86 13 -90 -5
-9 -127 -11 -135 -2 -3 3 17 46 44 95 28 50 52 88 55 85 3 -2 13 -42 23 -88z"/>
<path d="M3676 933 c-14 -64 -126 -715 -126 -728 0 -12 22 -15 125 -15 69 0
125 3 125 8 0 8 47 274 56 315 5 26 15 14 121 -147 l115 -176 107 0 107 0 63
357 c34 197 65 370 68 386 l5 27 -126 0 c-122 0 -126 -1 -131 -22 -3 -13 -16
-88 -30 -168 -15 -79 -27 -146 -29 -147 -2 -2 -54 73 -116 167 l-113 170 -108
0 -107 0 -6 -27z"/>
<path d="M5721 598 c-35 -200 -65 -373 -68 -385 -5 -23 -5 -23 125 -23 l130 0
17 95 17 95 67 0 c263 0 434 123 449 321 8 112 -27 177 -122 227 -51 27 -51
27 -301 30 l-251 3 -63 -363z m458 136 c12 -15 21 -33 21 -41 0 -26 -29 -78
-52 -92 -27 -17 -168 -28 -168 -14 0 10 18 115 25 151 5 20 11 22 79 22 69 0
76 -2 95 -26z"/>
<path d="M6600 953 c0 -5 -29 -174 -65 -377 -36 -203 -65 -373 -65 -378 0 -4
59 -8 130 -8 75 0 130 4 130 9 0 6 29 176 65 379 36 204 65 373 65 376 0 3
-58 6 -130 6 -71 0 -130 -3 -130 -7z"/>
<path d="M6996 933 c-14 -68 -126 -716 -126 -729 0 -12 43 -14 302 -12 l303 3
12 70 c7 39 15 82 17 98 l6 27 -176 0 -176 0 6 28 c3 15 24 131 46 257 22 127
43 242 46 258 l6 27 -130 0 -130 0 -6 -27z"/>
<path d="M7690 951 c0 -5 -29 -176 -65 -379 -36 -203 -65 -372 -65 -375 0 -4
59 -7 130 -7 72 0 130 3 130 8 0 4 29 173 65 376 36 203 65 373 65 378 0 4
-58 8 -130 8 -73 0 -130 -4 -130 -9z"/>
<path d="M8090 955 c0 -2 -29 -170 -65 -372 -36 -202 -65 -373 -65 -380 0 -10
31 -13 129 -13 l128 0 12 78 c19 120 13 112 89 112 263 0 430 120 449 323 11
119 -51 207 -170 242 -39 11 -106 15 -279 15 -125 0 -228 -2 -228 -5z m388
-211 c16 -11 22 -25 22 -53 0 -73 -56 -111 -162 -111 -55 0 -53 -5 -36 103
l11 77 72 0 c48 0 78 -5 93 -16z"/>
<path d="M8905 938 c-11 -51 -125 -715 -125 -731 0 -16 12 -17 127 -15 l127 3
63 355 c34 195 64 367 67 383 l6 27 -130 0 c-126 0 -130 -1 -135 -22z"/>
<path d="M9305 948 c-2 -7 -31 -173 -65 -368 -34 -195 -63 -363 -66 -372 -5
-17 5 -18 123 -18 l129 0 29 170 c16 94 32 170 36 170 3 0 56 -77 117 -170
l111 -171 108 3 107 3 62 355 c35 195 65 367 68 383 l6 27 -128 0 -128 0 -29
-170 c-15 -93 -31 -167 -35 -165 -3 2 -56 78 -116 169 l-109 166 -108 0 c-77
0 -109 -4 -112 -12z"/>
<path d="M10452 948 c-10 -14 -436 -708 -453 -740 -10 -18 -3 -18 122 -16
l132 3 36 65 37 65 146 3 c162 3 149 8 163 -68 14 -75 3 -70 150 -70 l133 0
-58 223 c-31 122 -77 295 -100 385 l-43 162 -127 0 c-90 0 -131 -4 -138 -12z
m106 -313 c7 -36 15 -78 18 -95 l7 -30 -72 0 c-41 0 -71 4 -71 10 0 13 93 179
101 180 3 0 11 -29 17 -65z"/>
</g>
</svg>
