<svg xmlns="http://www.w3.org/2000/svg" version="1.0" preserveAspectRatio="xMidYMid meet" viewBox="48 126.88 401.68 130.22">

<g transform="translate(0.000000,500.000000) scale(0.100000,-0.100000)" fill="#000000" stroke="none">
<path d="M3930 3710 c-97 -97 6 -311 119 -250 19 10 51 78 51 108 0 38 -23 95 -52 127 -36 42 -85 48 -118 15z"/>
<path d="M3700 3593 c-45 -57 -2 -181 75 -217 45 -22 62 -20 90 9 50 49 21 162 -54 212 -46 31 -84 30 -111 -4z"/>
<path d="M4165 3546 c-45 -68 -37 -165 17 -211 38 -32 53 -31 87 3 49 48 49 144 0 206 -28 35 -82 36 -104 2z"/>
<path d="M3605 3360 c-13 -15 -16 -30 -13 -65 7 -59 48 -112 106 -138 41 -18 49 -18 71 -6 49 28 52 84 9 149 -49 73 -135 102 -173 60z"/>
<path d="M4019 3321 c-51 -10 -101 -42 -124 -80 -11 -18 -42 -66 -69 -107 -48 -74 -49 -74 -34 -111 16 -44 68 -83 110 -83 l29 0 -3 -132 c-3 -129 -4 -133 -25 -136 -13 -2 -23 -10 -23 -18 0 -11 27 -14 155 -14 l155 0 0 50 c0 56 -23 71 -35 23 -9 -37 -20 -43 -87 -43 l-58 0 0 75 0 75 65 0 c50 0 65 3 65 15 0 10 -16 15 -62 17 l-63 3 0 50 0 49 47 14 c56 18 78 11 78 -23 0 -18 5 -25 20 -25 17 0 20 7 20 45 0 40 3 46 33 61 146 75 157 190 21 230 -30 8 -73 26 -97 39 -54 30 -74 34 -118 26z"/>
<path d="M1432 3020 c-55 -8 -92 -36 -119 -90 -38 -73 -28 -184 21 -238 34 -38 71 -52 139 -52 71 0 117 24 117 61 0 24 -6 24 -37 -1 -37 -29 -104 -27 -140 4 -27 24 -28 27 -28 129 0 98 2 107 25 132 19 20 32 25 59 23 33 -3 48 -17 64 -63 2 -6 14 -5 30 2 30 14 37 52 13 72 -20 17 -95 28 -144 21z"/>
<path d="M480 3006 c0 -8 8 -16 17 -18 13 -2 30 -46 68 -173 l51 -170 34 0 34 0 36 117 c19 65 37 118 40 118 3 0 16 -30 29 -67 63 -178 60 -173 91 -173 19 0 31 6 34 18 3 9 21 78 41 152 42 161 50 180 70 180 8 0 15 7 15 15 0 12 -14 15 -65 15 -51 0 -65 -3 -65 -15 0 -8 7 -15 15 -15 27 0 27 -27 0 -144 l-28 -115 -42 123 c-74 213 -79 214 -135 37 -22 -70 -40 -134 -40 -142 0 -32 -18 13 -44 108 -29 104 -29 133 -1 133 8 0 15 7 15 15 0 12 -16 15 -85 15 -67 0 -85 -3 -85 -14z"/>
<path d="M1060 3006 c0 -8 10 -16 23 -18 22 -3 22 -5 22 -158 0 -153 0 -155 -22 -158 -13 -2 -23 -10 -23 -18 0 -11 19 -14 90 -14 73 0 90 3 90 15 0 8 -9 15 -19 15 -28 0 -31 18 -31 160 0 142 3 160 31 160 10 0 19 7 19 15 0 12 -17 15 -90 15 -71 0 -90 -3 -90 -14z"/>
<path d="M1630 3006 c0 -8 10 -16 23 -18 22 -3 22 -5 22 -158 0 -153 0 -155 -22 -158 -13 -2 -23 -10 -23 -18 0 -11 19 -14 90 -14 71 0 90 3 90 14 0 8 -10 16 -22 18 -21 3 -23 8 -23 68 0 53 3 65 17 68 12 2 26 -13 46 -55 46 -89 61 -104 115 -110 56 -7 59 2 15 49 -18 20 -44 56 -57 81 l-23 46 30 26 c58 49 49 124 -18 157 -47 24 -260 26 -260 4z m210 -36 c24 -24 26 -77 4 -108 -11 -15 -25 -22 -50 -22 l-34 0 0 75 0 75 30 0 c17 0 39 -9 50 -20z"/>
<path d="M2010 3005 c0 -8 9 -15 19 -15 28 0 31 -18 31 -160 0 -142 -3 -160 -31 -160 -10 0 -19 -7 -19 -15 0 -13 24 -15 155 -15 l155 0 0 51 c0 43 -3 50 -17 47 -10 -2 -19 -12 -21 -23 -7 -37 -23 -45 -83 -45 l-59 0 0 75 0 75 60 0 c47 0 60 3 60 15 0 12 -13 15 -60 15 l-60 0 0 70 0 71 57 -3 c55 -3 57 -4 65 -35 14 -53 38 -42 38 17 l0 50 -145 0 c-122 0 -145 -2 -145 -15z"/>
<path d="M2502 3003 c-3 -10 -32 -85 -62 -168 -42 -113 -62 -152 -78 -160 -45 -20 -25 -35 48 -35 54 0 70 3 70 14 0 8 -10 16 -22 18 -25 3 -27 23 -9 71 10 25 15 27 71 27 61 0 61 0 76 -36 17 -40 13 -64 -11 -64 -8 0 -15 -7 -15 -15 0 -12 16 -15 85 -15 69 0 85 3 85 15 0 8 -7 15 -15 15 -19 0 -28 17 -84 177 -27 76 -52 146 -56 156 -5 11 -18 17 -41 17 -24 0 -37 -6 -42 -17z m68 -195 c0 -5 -23 -8 -51 -8 -37 0 -50 4 -47 13 3 6 15 44 28 82 l23 70 23 -75 c13 -41 24 -78 24 -82z"/>
<path d="M2750 2970 c0 -38 4 -50 15 -50 8 0 15 9 15 19 0 28 27 51 61 51 l30 0 -3 -157 c-3 -155 -3 -158 -25 -161 -13 -2 -23 -10 -23 -18 0 -11 19 -14 96 -14 72 0 95 3 92 13 -3 6 -14 13 -26 15 -22 3 -22 7 -22 163 l0 159 28 0 c36 0 48 -9 56 -42 3 -16 13 -28 21 -28 11 0 15 13 15 50 l0 50 -165 0 -165 0 0 -50z"/>
<path d="M3100 3006 c0 -8 10 -16 23 -18 21 -3 22 -7 27 -145 5 -139 6 -143 32 -170 23 -23 38 -28 93 -31 73 -5 119 9 138 42 7 12 14 79 17 161 5 136 6 140 28 143 12 2 22 10 22 18 0 11 -16 14 -70 14 -54 0 -70 -3 -70 -14 0 -8 10 -16 23 -18 21 -3 22 -7 25 -136 3 -129 2 -133 -22 -157 -30 -30 -74 -33 -107 -6 -23 19 -24 24 -24 158 0 136 0 138 23 141 12 2 22 10 22 18 0 11 -19 14 -90 14 -71 0 -90 -3 -90 -14z"/>
<path d="M3502 3008 c3 -7 14 -14 26 -16 22 -3 22 -7 22 -163 l0 -159 -25 0 c-16 0 -25 -6 -25 -15 0 -12 17 -15 96 -15 72 0 95 3 92 13 -3 6 -14 13 -26 15 -20 3 -22 9 -22 73 0 92 17 91 69 -4 43 -78 68 -97 126 -97 41 0 45 11 11 33 -32 22 -104 149 -86 155 61 21 78 115 29 161 -27 25 -62 31 -186 31 -79 0 -104 -3 -101 -12z m210 -35 c11 -10 18 -30 18 -55 0 -58 -14 -78 -55 -78 l-35 0 0 75 c0 75 0 75 27 75 14 0 35 -7 45 -17z"/>
<path d="M4274 2986 c-26 -26 -34 -43 -34 -69 0 -47 25 -75 106 -117 80 -41 101 -75 69 -110 -39 -43 -125 -11 -125 47 0 28 -21 30 -43 5 -44 -49 -5 -94 87 -100 82 -5 132 17 153 66 28 67 -3 115 -104 163 -47 23 -64 36 -69 56 -10 37 7 58 47 58 27 0 36 -6 49 -30 8 -16 16 -32 17 -34 2 -2 14 1 28 7 17 8 25 20 25 36 0 38 -35 56 -108 56 -59 0 -66 -2 -98 -34z"/>
<path d="M1191 2588 c7 -13 20 -35 30 -50 11 -15 19 -43 19 -67 0 -30 4 -41 15 -41 11 0 15 11 15 38 0 25 10 54 30 85 33 52 35 57 20 57 -5 0 -22 -18 -37 -41 l-26 -40 -26 40 c-28 44 -61 59 -40 19z"/>
<path d="M1379 2595 c-54 -29 -60 -107 -12 -145 89 -69 193 51 114 131 -32 32 -62 36 -102 14z m91 -35 c27 -27 25 -56 -5 -85 -27 -28 -37 -30 -68 -14 -28 15 -37 28 -37 58 0 55 70 81 110 41z"/>
<path d="M1530 2536 c0 -66 3 -77 22 -90 12 -9 32 -16 43 -16 11 0 31 7 43 16 19 13 22 24 22 90 0 43 -4 74 -10 74 -6 0 -10 -28 -10 -64 0 -65 -14 -96 -45 -96 -31 0 -45 31 -45 96 0 36 -4 64 -10 64 -6 0 -10 -31 -10 -74z"/>
<path d="M1680 2520 c0 -53 4 -90 10 -90 6 0 10 32 10 76 l0 75 33 -3 c27 -2 32 -7 32 -28 0 -20 -6 -26 -27 -28 -16 -2 -28 -6 -28 -8 0 -12 66 -84 78 -84 18 0 15 11 -10 37 l-21 23 22 24 c44 47 8 96 -70 96 l-29 0 0 -90z"/>
<path d="M1900 2520 c0 -73 3 -90 15 -90 10 0 15 10 15 30 0 26 4 30 28 30 57 0 85 73 40 104 -12 9 -39 16 -60 16 l-38 0 0 -90z m96 38 c7 -24 -17 -48 -48 -48 -14 0 -18 8 -18 35 0 32 2 35 29 35 22 0 32 -6 37 -22z"/>
<path d="M2037 2603 c-4 -3 -7 -44 -7 -90 l0 -83 55 0 c30 0 55 5 55 10 0 6 -18 10 -40 10 -38 0 -40 2 -40 30 0 28 2 30 40 30 22 0 40 5 40 10 0 6 -18 10 -40 10 -36 0 -40 3 -40 25 0 23 4 25 40 25 29 0 40 4 40 15 0 11 -12 15 -48 15 -27 0 -52 -3 -55 -7z"/>
<path d="M2150 2595 c0 -9 9 -15 25 -15 24 0 25 -2 25 -75 0 -43 4 -75 10 -75 6 0 10 31 10 74 0 72 1 75 25 78 50 6 29 23 -32 26 -52 2 -63 0 -63 -13z"/>
<path d="M2380 2521 l0 -91 46 0 c37 0 51 5 75 29 60 61 25 137 -68 148 l-53 6 0 -92z m104 43 c19 -19 21 -77 3 -92 -7 -7 -29 -13 -48 -14 l-34 -3 -3 63 -3 62 35 0 c19 0 42 -7 50 -16z"/>
<path d="M2535 2599 c-4 -6 2 -13 14 -16 18 -5 21 -13 21 -65 0 -51 -3 -61 -20 -65 -36 -9 -21 -23 25 -23 44 0 60 12 30 24 -11 4 -15 21 -15 66 0 47 3 60 15 60 8 0 15 7 15 15 0 18 -75 22 -85 4z"/>
<path d="M2683 2598 c-12 -6 -29 -26 -38 -45 -15 -31 -15 -36 2 -71 30 -61 104 -70 139 -17 21 32 9 47 -14 19 -23 -28 -49 -36 -75 -22 -29 15 -37 27 -37 59 0 55 64 77 107 37 13 -12 26 -19 29 -16 12 12 -17 46 -47 57 -37 13 -37 13 -66 -1z"/>
<path d="M2810 2595 c0 -9 10 -15 25 -15 24 0 25 -2 25 -75 0 -60 3 -75 15 -75 12 0 15 15 15 74 0 73 0 74 28 78 56 8 62 2 62 -64 0 -51 -3 -61 -20 -65 -36 -9 -21 -23 25 -23 44 0 60 12 30 24 -11 4 -15 21 -15 66 0 47 3 60 15 60 8 0 15 6 15 14 0 12 -21 15 -110 15 -91 1 -110 -2 -110 -14z"/>
<path d="M3089 2595 c-54 -29 -60 -107 -12 -145 89 -69 193 51 114 131 -32 32 -62 36 -102 14z m91 -35 c27 -27 25 -56 -5 -85 -27 -28 -37 -30 -68 -14 -28 15 -37 28 -37 58 0 55 70 81 110 41z"/>
<path d="M3240 2520 c0 -102 17 -124 22 -27 l3 62 43 -62 c23 -35 47 -63 52 -63 6 0 10 39 10 90 0 53 -4 90 -10 90 -6 0 -10 -27 -10 -61 0 -72 -8 -70 -60 12 -18 27 -36 49 -41 49 -5 0 -9 -40 -9 -90z"/>
<path d="M3413 2527 c-18 -45 -33 -86 -33 -90 0 -17 21 -5 30 18 8 20 16 25 43 25 26 0 36 -6 45 -25 14 -30 36 -34 27 -4 -17 54 -62 153 -71 156 -5 2 -24 -34 -41 -80z m57 -4 c0 -7 -9 -13 -20 -13 -17 0 -18 3 -8 25 8 19 14 22 20 13 4 -7 8 -19 8 -25z"/>
<path d="M3540 2520 c0 -53 4 -90 10 -90 6 0 10 32 10 76 l0 75 33 -3 c27 -2 32 -7 32 -28 0 -20 -6 -26 -27 -28 -16 -2 -28 -6 -28 -8 0 -12 66 -84 78 -84 18 0 15 11 -10 37 l-21 23 22 24 c44 47 8 96 -70 96 l-29 0 0 -90z"/>
<path d="M3660 2605 c0 -3 14 -27 30 -53 19 -31 30 -63 30 -86 0 -25 4 -36 15 -36 11 0 15 11 15 43 0 24 4 47 8 53 5 5 19 26 31 47 32 52 4 49 -30 -4 l-26 -40 -26 40 c-23 35 -47 53 -47 36z"/>
</g>
</svg>